<svg width="22" height="22" viewBox="0 0 22 22" fill="none" xmlns="http://www.w3.org/2000/svg">
<path d="M3.20825 18.3333C2.84159 18.3333 2.52075 18.1958 2.24575 17.9208C1.97075 17.6458 1.83325 17.325 1.83325 16.9583V5.04163C1.83325 4.67496 1.97075 4.35413 2.24575 4.07913C2.52075 3.80413 2.84159 3.66663 3.20825 3.66663H18.7916C19.1583 3.66663 19.4791 3.80413 19.7541 4.07913C20.0291 4.35413 20.1666 4.67496 20.1666 5.04163V16.9583C20.1666 17.325 20.0291 17.6458 19.7541 17.9208C19.4791 18.1958 19.1583 18.3333 18.7916 18.3333H3.20825ZM10.9999 11.4125L3.20825 6.30204V16.9583H18.7916V6.30204L10.9999 11.4125ZM10.9999 10.0375L18.6999 5.04163H3.32284L10.9999 10.0375ZM3.20825 6.30204V5.04163V16.9583V6.30204Z" fill="white"/>
</svg>
